<!-- Generated by IcoMoon.io -->
<svg version="1.1" xmlns="http://www.w3.org/2000/svg" width="32" height="32" viewBox="0 0 32 32">
<title>Done-logo</title>
<path d="M14.133 18.4l-2.9-2.9c-0.215-0.217-0.513-0.352-0.843-0.352-0.026 0-0.051 0.001-0.076 0.002l0.003-0c-0.359 0.001-0.683 0.147-0.917 0.383l-0 0c-0.227 0.228-0.367 0.543-0.367 0.891 0 0.015 0 0.030 0.001 0.045l-0-0.002c0 0.377 0.123 0.689 0.367 0.933l3.8 3.8c0.228 0.227 0.543 0.367 0.891 0.367 0.015 0 0.030-0 0.045-0.001l-0.002 0c0.013 0 0.027 0.001 0.042 0.001 0.348 0 0.662-0.14 0.891-0.367l7.567-7.567c0.218-0.216 0.353-0.516 0.353-0.847 0-0.025-0.001-0.050-0.002-0.074l0 0.003c-0.002-0.358-0.149-0.682-0.384-0.916l-0-0c-0.228-0.227-0.543-0.367-0.891-0.367-0.015 0-0.030 0-0.045 0.001l0.002-0c-0.013-0-0.027-0.001-0.042-0.001-0.348 0-0.663 0.14-0.891 0.367l-6.6 6.6zM16 29.333c-0.025 0-0.055 0-0.084 0-1.849 0-3.607-0.387-5.199-1.084l0.083 0.033c-1.644-0.709-3.048-1.669-4.234-2.85l0 0c-1.2-1.2-2.149-2.611-2.849-4.233-0.664-1.508-1.051-3.267-1.051-5.116 0-0.030 0-0.059 0-0.089l-0 0.005c0-1.844 0.351-3.577 1.051-5.2 0.709-1.644 1.669-3.048 2.85-4.234l-0 0c1.2-1.2 2.611-2.151 4.233-2.851 1.508-0.663 3.267-1.050 5.116-1.050 0.030 0 0.059 0 0.089 0l-0.005-0c1.844 0 3.577 0.349 5.2 1.049 1.644 0.709 3.048 1.671 4.234 2.851l-0-0c1.2 1.2 2.149 2.611 2.849 4.233 0.664 1.508 1.051 3.267 1.051 5.116 0 0.030-0 0.059-0 0.089l0-0.005c0 0.025 0 0.055 0 0.084 0 1.849-0.387 3.608-1.084 5.199l0.033-0.083c-0.709 1.644-1.669 3.048-2.85 4.234l0-0c-1.2 1.2-2.611 2.149-4.233 2.849-1.508 0.664-3.267 1.051-5.116 1.051-0.030 0-0.059-0-0.089-0l0.005 0zM16 26.667c2.956 0 5.472-1.039 7.551-3.116 2.077-2.079 3.116-4.595 3.116-7.551s-1.039-5.472-3.116-7.551c-2.079-2.077-4.595-3.116-7.551-3.116s-5.472 1.039-7.549 3.116c-2.079 2.079-3.117 4.595-3.117 7.551s1.040 5.472 3.117 7.551c2.077 2.077 4.593 3.116 7.549 3.116z"></path>
</svg>
