<svg width="32" height="32" viewBox="0 0 32 32" fill="none" xmlns="http://www.w3.org/2000/svg">
<path d="M9.32407 16C9.32407 19.6814 12.3187 22.676 16.0001 22.676C19.6814 22.676 22.6761 19.6814 22.6761 16C22.6761 12.3187 19.6814 9.32402 16.0001 9.32402C12.3187 9.32402 9.32407 12.3187 9.32407 16ZM16.0001 11.9907C18.2107 11.9907 20.0094 13.7894 20.0094 16C20.0094 18.2107 18.2107 20.0094 16.0001 20.0094C13.7894 20.0094 11.9907 18.2107 11.9907 16C11.9907 13.7894 13.7894 11.9907 16.0001 11.9907ZM14.6641 25.3334H17.3307V29.3334H14.6641V25.3334ZM14.6641 2.66669H17.3307V6.66669H14.6641V2.66669ZM2.66406 14.6667H6.66407V17.3334H2.66406V14.6667ZM25.3307 14.6667H29.3307V17.3334H25.3307V14.6667ZM5.6254 24.484L8.45207 21.6547L10.3387 23.54L7.51207 26.3694L5.6254 24.484ZM21.6534 8.45869L24.4827 5.62936L26.3681 7.51469L23.5387 10.344L21.6534 8.45869ZM8.45607 10.3454L5.62673 7.51602L7.5134 5.63069L10.3401 8.46002L8.45607 10.3454ZM26.3681 24.4854L24.4827 26.3707L21.6534 23.5414L23.5387 21.656L26.3681 24.4854Z" fill="#3E85F3"/>
</svg>
